<svg xmlns="http://www.w3.org/2000/svg" height="24px" viewBox="0 -960 960 960" width="24px" fill="#e3e3e3"><path d="M336-336h288v-288H336v288Zm28-28v-232h232v232H364Zm-19.5 205q-63.5-27-111-74.5t-74.5-111Q132-408 132-480t27-135.5Q186-679 233.5-726t111-74.5Q408-828 480-828t135.5 27.5Q679-773 726-726t74.5 110.5Q828-552 828-480t-27.5 135.5Q773-281 726-233.5T615.5-159Q552-132 480-132t-135.5-27Zm135.5-1q133 0 226.5-93T800-480q0-133-93.5-226.5T480-800q-134 0-227 93.5T160-480q0 134 93 227t227 93Zm0-320Z"/></svg>