<svg xmlns="http://www.w3.org/2000/svg" height="24px" viewBox="0 -960 960 960" width="24px" fill="#e3e3e3"><path d="M123-284q0-26 13.5-43.5T173-356q49-23 96.5-37.5T391-408q74 0 121.5 14.5T609-356q23 11 36.5 28.5T659-284v22q0 10-8.5 20T629-232H153q-13 0-21.5-8.5T123-262v-22Zm611 52q2-7 3.5-14.5T739-262v-22q0-32-11-60t-31-48q23 6 45 15.5t45 20.5q23 11 36.5 30t13.5 42v22q0 13-8.5 21.5T807-232h-73ZM314.5-543.5Q283-575 283-620t31.5-76.5Q346-728 391-728t76.5 31.5Q499-665 499-620t-31.5 76.5Q436-512 391-512t-76.5-31.5Zm303 0Q586-512 541-512q18-23 28-50.5t10-57.5q0-30-10.5-57T541-728q45 0 76.5 31.5T649-620q0 45-31.5 76.5Z"/></svg>